<?xml version="1.0" encoding="UTF-8"?>
<!DOCTYPE svg PUBLIC "-//W3C//DTD SVG 1.1//EN" "http://www.w3.org/Graphics/SVG/1.1/DTD/svg11.dtd">
<svg xmlns="http://www.w3.org/2000/svg" version="1.1" width="512px" height="512px" style="shape-rendering:geometricPrecision; text-rendering:geometricPrecision; image-rendering:optimizeQuality; fill-rule:evenodd; clip-rule:evenodd" xmlns:xlink="http://www.w3.org/1999/xlink">
<g><path style="opacity:0.991" fill="#69c378" d="M 400.5,196.5 C 378.006,195.503 355.339,195.169 332.5,195.5C 320.833,195.5 309.167,195.5 297.5,195.5C 289.59,195.095 284.424,191.095 282,183.5C 281.5,170.504 281.333,157.504 281.5,144.5C 281.822,121.425 281.489,98.425 280.5,75.5C 280.333,57.4969 280.5,39.4969 281,21.5C 282.727,14.7718 286.894,10.2718 293.5,8C 359.167,7.33333 424.833,7.33333 490.5,8C 496.667,10.1667 500.833,14.3333 503,20.5C 503.667,74.5 503.667,128.5 503,182.5C 501.664,188.501 498.164,192.668 492.5,195C 484.905,196.356 477.238,196.856 469.5,196.5C 469.667,208.838 469.5,221.171 469,233.5C 466.103,238.155 461.937,239.655 456.5,238C 440.833,224.333 425.167,210.667 409.5,197C 406.518,196.502 403.518,196.335 400.5,196.5 Z"/></g>
<g><path style="opacity:1" fill="#55a060" d="M 321.5,50.5 C 368.501,50.3333 415.501,50.5 462.5,51C 468.542,53.8368 470.042,58.3368 467,64.5C 466.097,65.7014 464.931,66.5348 463.5,67C 415.833,67.6667 368.167,67.6667 320.5,67C 315.931,64.4586 314.431,60.6253 316,55.5C 317.73,53.5981 319.563,51.9314 321.5,50.5 Z"/></g>
<g><path style="opacity:0.992" fill="#d6e8fe" d="M 280.5,75.5 C 281.489,98.425 281.822,121.425 281.5,144.5C 281.167,144.5 280.833,144.5 280.5,144.5C 221.499,144.333 162.499,144.5 103.5,145C 89.7962,148.436 80.9628,156.936 77,170.5C 76.3333,204.167 76.3333,237.833 77,271.5C 81.239,285.405 90.4056,294.238 104.5,298C 172.203,298.983 239.87,298.65 307.5,297C 321.39,292.442 329.556,282.942 332,268.5C 332.5,244.502 332.667,220.502 332.5,196.5C 343.833,196.5 355.167,196.5 366.5,196.5C 366.5,219.167 366.5,241.833 366.5,264.5C 364.762,298.991 347.428,321.325 314.5,331.5C 241.165,332.83 167.831,332.83 94.5,331.5C 61.6886,321.336 44.0219,299.002 41.5,264.5C 42.8333,224.5 42.8333,184.5 41.5,144.5C 44.7614,104.74 66.0947,81.9064 105.5,76C 163.832,75.5 222.166,75.3333 280.5,75.5 Z"/></g>
<g><path style="opacity:1" fill="#55a060" d="M 320.5,93.5 C 368.168,93.3333 415.834,93.5 463.5,94C 468.609,97.3662 469.776,101.866 467,107.5C 465.581,108.46 464.081,109.293 462.5,110C 415.167,110.667 367.833,110.667 320.5,110C 315.391,106.634 314.224,102.134 317,96.5C 318.145,95.3636 319.312,94.3636 320.5,93.5 Z"/></g>
<g><path style="opacity:1" fill="#55a060" d="M 319.5,136.5 C 359.168,136.333 398.835,136.5 438.5,137C 445.341,142.66 445.008,147.994 437.5,153C 398.833,153.667 360.167,153.667 321.5,153C 314.412,148.222 313.745,142.722 319.5,136.5 Z"/></g>
<g><path style="opacity:0.983" fill="#b0cadc" d="M 41.5,144.5 C 42.8333,184.5 42.8333,224.5 41.5,264.5C 31.5107,263.361 24.0107,258.361 19,249.5C 4.04249,220.009 3.70915,190.342 18,160.5C 23.0919,151.044 30.9252,145.711 41.5,144.5 Z"/></g>
<g><path style="opacity:1" fill="#193870" d="M 280.5,144.5 C 280.5,155.833 280.5,167.167 280.5,178.5C 265.622,178.248 257.288,185.415 255.5,200C 257.307,215.473 265.974,222.473 281.5,221C 289.747,218.254 295.08,212.754 297.5,204.5C 298.473,202.052 298.806,199.385 298.5,196.5C 309.833,196.5 321.167,196.5 332.5,196.5C 332.667,220.502 332.5,244.502 332,268.5C 329.556,282.942 321.39,292.442 307.5,297C 239.87,298.65 172.203,298.983 104.5,298C 90.4056,294.238 81.239,285.405 77,271.5C 76.3333,237.833 76.3333,204.167 77,170.5C 80.9628,156.936 89.7962,148.436 103.5,145C 162.499,144.5 221.499,144.333 280.5,144.5 Z"/></g>
<g><path style="opacity:1" fill="#21d8d9" d="M 126.5,178.5 C 138.261,177.296 146.761,181.963 152,192.5C 155.31,206.719 150.143,216.219 136.5,221C 118.179,221.678 109.679,212.845 111,194.5C 113.685,186.65 118.852,181.316 126.5,178.5 Z"/></g>
<g><path style="opacity:1" fill="#23d5d6" d="M 280.5,144.5 C 280.833,144.5 281.167,144.5 281.5,144.5C 281.333,157.504 281.5,170.504 282,183.5C 284.424,191.095 289.59,195.095 297.5,195.5C 297.5,198.5 297.5,201.5 297.5,204.5C 295.08,212.754 289.747,218.254 281.5,221C 265.974,222.473 257.307,215.473 255.5,200C 257.288,185.415 265.622,178.248 280.5,178.5C 280.5,167.167 280.5,155.833 280.5,144.5 Z"/></g>
<g><path style="opacity:1" fill="#2e657b" d="M 297.5,195.5 C 309.167,195.5 320.833,195.5 332.5,195.5C 332.5,195.833 332.5,196.167 332.5,196.5C 321.167,196.5 309.833,196.5 298.5,196.5C 298.806,199.385 298.473,202.052 297.5,204.5C 297.5,201.5 297.5,198.5 297.5,195.5 Z"/></g>
<g><path style="opacity:0.988" fill="#afcadb" d="M 332.5,196.5 C 332.5,196.167 332.5,195.833 332.5,195.5C 355.339,195.169 378.006,195.503 400.5,196.5C 402.357,215.714 398.524,233.714 389,250.5C 383.654,258.689 376.154,263.356 366.5,264.5C 366.5,241.833 366.5,219.167 366.5,196.5C 355.167,196.5 343.833,196.5 332.5,196.5 Z"/></g>
<g><path style="opacity:1" fill="#21d7d8" d="M 184.5,229.5 C 197.504,229.333 210.504,229.5 223.5,230C 229.234,233.18 231.067,238.013 229,244.5C 222.669,261.415 210.836,267.249 193.5,262C 182.781,256.397 177.948,247.563 179,235.5C 180.36,232.977 182.193,230.977 184.5,229.5 Z"/></g>
<g><path style="opacity:0.995" fill="#bed8ee" d="M 94.5,331.5 C 167.831,332.83 241.165,332.83 314.5,331.5C 329.422,329.292 340.589,334.626 348,347.5C 349.108,351.086 349.608,354.753 349.5,358.5C 335.016,364.8 329.516,375.8 333,391.5C 334.841,399.529 336.675,407.529 338.5,415.5C 306.688,479.09 255.021,507.923 183.5,502C 130.008,492.781 92.0079,463.614 69.5,414.5C 74.4351,402.657 76.6018,390.324 76,377.5C 73.7887,367.79 67.9553,361.457 58.5,358.5C 58.9616,346.073 64.9616,337.573 76.5,333C 82.4348,331.761 88.4348,331.261 94.5,331.5 Z"/></g>
<g><path style="opacity:0.983" fill="#d7e9fe" d="M 58.5,358.5 C 67.9553,361.457 73.7887,367.79 76,377.5C 76.6018,390.324 74.4351,402.657 69.5,414.5C 61.7649,435.811 50.0982,454.644 34.5,471C 32.1667,472.667 29.8333,474.333 27.5,476C 16.5941,479.959 10.4274,476.125 9,464.5C 5.47066,431.146 11.804,399.813 28,370.5C 35.3475,359.412 45.5142,355.412 58.5,358.5 Z"/></g>
<g><path style="opacity:0.984" fill="#d7e9fe" d="M 338.5,415.5 C 336.675,407.529 334.841,399.529 333,391.5C 329.516,375.8 335.016,364.8 349.5,358.5C 362.037,355.515 372.203,359.182 380,369.5C 389.347,384.536 395.347,400.869 398,418.5C 400.919,433.098 401.586,447.765 400,462.5C 397.616,478.349 389.783,481.849 376.5,473C 367.865,464.705 360.365,455.538 354,445.5C 348.533,435.564 343.367,425.564 338.5,415.5 Z"/></g>
<g><path style="opacity:1" fill="#1a3970" d="M 195.5,375.5 C 217.409,372.612 231.576,381.612 238,402.5C 239.519,424.304 229.685,437.804 208.5,443C 189.154,443.906 176.654,435.073 171,416.5C 168.591,396.428 176.758,382.762 195.5,375.5 Z"/></g>
</svg>
