<?xml version="1.0" encoding="UTF-8"?>
<!DOCTYPE svg PUBLIC "-//W3C//DTD SVG 1.1//EN" "http://www.w3.org/Graphics/SVG/1.1/DTD/svg11.dtd">
<svg xmlns="http://www.w3.org/2000/svg" version="1.1" width="512px" height="512px" style="shape-rendering:geometricPrecision; text-rendering:geometricPrecision; image-rendering:optimizeQuality; fill-rule:evenodd; clip-rule:evenodd" xmlns:xlink="http://www.w3.org/1999/xlink">
<g><path style="opacity:0.997" fill="#eff4f9" d="M 255.5,37.5 C 255.5,70.5 255.5,103.5 255.5,136.5C 230.831,136.333 206.164,136.5 181.5,137C 141.421,145.079 116.254,168.912 106,208.5C 100.448,256.582 119.614,290.415 163.5,310C 168.097,311.586 172.764,312.919 177.5,314C 203.472,315.413 229.472,315.913 255.5,315.5C 255.5,330.5 255.5,345.5 255.5,360.5C 219.165,360.667 182.832,360.5 146.5,360C 115.971,355.754 92.3041,340.921 75.5,315.5C 67.0703,302.047 61.9036,287.381 60,271.5C 59.3333,252.167 59.3333,232.833 60,213.5C 61.8864,196.682 65.7197,180.349 71.5,164.5C 78.85,145.459 88.5167,127.792 100.5,111.5C 140.722,63.5608 192.389,38.8942 255.5,37.5 Z"/></g>
<g><path style="opacity:1" fill="#d6e2ef" d="M 255.5,37.5 C 318.613,38.8954 370.28,63.5621 410.5,111.5C 422.481,127.788 432.148,145.454 439.5,164.5C 445.428,180.302 449.262,196.635 451,213.5C 451.667,233.167 451.667,252.833 451,272.5C 449.279,288.169 444.112,302.503 435.5,315.5C 418.696,340.921 395.029,355.754 364.5,360C 328.168,360.5 291.835,360.667 255.5,360.5C 255.5,345.5 255.5,330.5 255.5,315.5C 278.836,315.667 302.169,315.5 325.5,315C 371.211,307.622 398.045,281.122 406,235.5C 408.521,197.373 393.687,168.206 361.5,148C 350.851,142.172 339.518,138.505 327.5,137C 303.502,136.5 279.502,136.333 255.5,136.5C 255.5,103.5 255.5,70.5 255.5,37.5 Z"/></g>
<g><path style="opacity:0.965" fill="#01429d" d="M 100.5,111.5 C 88.5167,127.792 78.85,145.459 71.5,164.5C 70.8333,164.5 70.1667,164.5 69.5,164.5C 69.0224,133.104 69.5224,101.771 71,70.5C 75.3343,63.717 81.501,61.217 89.5,63C 95,64.5 98.5,68 100,73.5C 100.5,86.1623 100.667,98.8289 100.5,111.5 Z"/></g>
<g><path style="opacity:0.964" fill="#00347b" d="M 441.5,164.5 C 440.833,164.5 440.167,164.5 439.5,164.5C 432.148,145.454 422.481,127.788 410.5,111.5C 410.333,98.8289 410.5,86.1623 411,73.5C 414.355,64.4027 420.855,60.9027 430.5,63C 434.843,64.0095 438.01,66.5095 440,70.5C 441.478,101.771 441.978,133.104 441.5,164.5 Z"/></g>
<g><path style="opacity:1" fill="#d6e2ef" d="M 255.5,136.5 C 255.5,146.5 255.5,156.5 255.5,166.5C 231.164,166.333 206.831,166.5 182.5,167C 146.725,178.117 131.225,202.284 136,239.5C 143.557,264.39 160.057,279.557 185.5,285C 208.831,285.5 232.164,285.667 255.5,285.5C 255.5,295.5 255.5,305.5 255.5,315.5C 229.472,315.913 203.472,315.413 177.5,314C 172.764,312.919 168.097,311.586 163.5,310C 119.614,290.415 100.448,256.582 106,208.5C 116.254,168.912 141.421,145.079 181.5,137C 206.164,136.5 230.831,136.333 255.5,136.5 Z"/></g>
<g><path style="opacity:1" fill="#9fb5da" d="M 255.5,136.5 C 279.502,136.333 303.502,136.5 327.5,137C 339.518,138.505 350.851,142.172 361.5,148C 393.687,168.206 408.521,197.373 406,235.5C 398.045,281.122 371.211,307.622 325.5,315C 302.169,315.5 278.836,315.667 255.5,315.5C 255.5,305.5 255.5,295.5 255.5,285.5C 278.502,285.667 301.502,285.5 324.5,285C 348.894,280.608 365.394,266.775 374,243.5C 381.33,209.661 369.496,185.161 338.5,170C 334.877,168.844 331.211,167.844 327.5,167C 303.502,166.5 279.502,166.333 255.5,166.5C 255.5,156.5 255.5,146.5 255.5,136.5 Z"/></g>
<g><path style="opacity:0.993" fill="#4793fe" d="M 69.5,164.5 C 70.1667,164.5 70.8333,164.5 71.5,164.5C 65.7197,180.349 61.8864,196.682 60,213.5C 59.3333,232.833 59.3333,252.167 60,271.5C 61.9036,287.381 67.0703,302.047 75.5,315.5C 61.8293,315.667 48.1626,315.5 34.5,315C 16.3096,309.975 4.64294,298.475 -0.5,280.5C -0.5,253.5 -0.5,226.5 -0.5,199.5C 4.65165,181.516 16.3183,170.016 34.5,165C 46.1619,164.5 57.8286,164.333 69.5,164.5 Z"/></g>
<g><path style="opacity:0.998" fill="#525cdc" d="M 439.5,164.5 C 440.167,164.5 440.833,164.5 441.5,164.5C 453.171,164.333 464.838,164.5 476.5,165C 494.682,170.016 506.348,181.516 511.5,199.5C 511.5,224.833 511.5,250.167 511.5,275.5C 509.324,289.005 502.657,299.839 491.5,308C 487.944,309.608 484.611,311.441 481.5,313.5C 479.821,313.892 478.154,314.392 476.5,315C 462.837,315.5 449.171,315.667 435.5,315.5C 444.112,302.503 449.279,288.169 451,272.5C 451.667,252.833 451.667,233.167 451,213.5C 449.262,196.635 445.428,180.302 439.5,164.5 Z"/></g>
<g><path style="opacity:1" fill="#01429d" d="M 255.5,166.5 C 255.5,206.167 255.5,245.833 255.5,285.5C 232.164,285.667 208.831,285.5 185.5,285C 160.057,279.557 143.557,264.39 136,239.5C 131.225,202.284 146.725,178.117 182.5,167C 206.831,166.5 231.164,166.333 255.5,166.5 Z"/></g>
<g><path style="opacity:1" fill="#00347b" d="M 255.5,166.5 C 279.502,166.333 303.502,166.5 327.5,167C 331.211,167.844 334.877,168.844 338.5,170C 369.496,185.161 381.33,209.661 374,243.5C 365.394,266.775 348.894,280.608 324.5,285C 301.502,285.5 278.502,285.667 255.5,285.5C 255.5,245.833 255.5,206.167 255.5,166.5 Z"/></g>
<g><path style="opacity:1" fill="#4691fd" d="M 192.5,205.5 C 202.094,203.967 208.594,207.634 212,216.5C 212.884,223.582 212.551,230.582 211,237.5C 203.055,248.543 194.389,249.209 185,239.5C 184.138,237.913 183.471,236.246 183,234.5C 182.333,228.167 182.333,221.833 183,215.5C 185.022,210.98 188.189,207.647 192.5,205.5 Z"/></g>
<g><path style="opacity:1" fill="#505bdb" d="M 308.5,205.5 C 317.59,204.016 324.09,207.35 328,215.5C 328.89,222.914 328.557,230.247 327,237.5C 319.151,248.525 310.484,249.192 301,239.5C 300.138,237.913 299.471,236.246 299,234.5C 298.333,228.5 298.333,222.5 299,216.5C 300.599,211.406 303.766,207.739 308.5,205.5 Z"/></g>
<g><path style="opacity:0.982" fill="#00429d" d="M 511.5,275.5 C 511.5,308.167 511.5,340.833 511.5,373.5C 504.601,407.249 485.268,431.083 453.5,445C 446.036,447.783 438.37,449.783 430.5,451C 409.503,451.5 388.503,451.667 367.5,451.5C 371.089,441.297 371.422,430.964 368.5,420.5C 388.169,420.667 407.836,420.5 427.5,420C 459.844,412.656 477.678,392.489 481,359.5C 481.5,344.17 481.667,328.837 481.5,313.5C 484.611,311.441 487.944,309.608 491.5,308C 502.657,299.839 509.324,289.005 511.5,275.5 Z"/></g>
<g><path style="opacity:0.984" fill="#00337a" d="M 368.5,420.5 C 371.422,430.964 371.089,441.297 367.5,451.5C 362.76,462.068 354.76,468.901 343.5,472C 327.873,473.568 312.207,473.901 296.5,473C 268.815,466.479 258.315,449.312 265,421.5C 270.257,409.117 279.424,401.284 292.5,398C 310.22,397.056 327.886,397.389 345.5,399C 356.564,402.565 364.231,409.731 368.5,420.5 Z"/></g>
</svg>
